<svg xmlns="http://www.w3.org/2000/svg" version="1.0" viewBox="358.18 351.38 93.76 93.75"><defs><clipPath id="a"><path d="M 358.183594 351.375 L 451.933594 351.375 L 451.933594 445.125 L 358.183594 445.125 Z M 358.183594 351.375"/></clipPath></defs><g clip-path="url(#a)"><path d="M 451.941406 398.25 C 451.941406 399.785156 451.863281 401.316406 451.714844 402.84375 C 451.5625 404.371094 451.339844 405.890625 451.039062 407.394531 C 450.738281 408.902344 450.367188 410.386719 449.921875 411.855469 C 449.476562 413.328125 448.960938 414.769531 448.371094 416.1875 C 447.785156 417.605469 447.128906 418.992188 446.40625 420.347656 C 445.679688 421.699219 444.894531 423.015625 444.039062 424.292969 C 443.1875 425.570312 442.273438 426.800781 441.300781 427.988281 C 440.324219 429.175781 439.296875 430.308594 438.210938 431.394531 C 437.125 432.480469 435.988281 433.511719 434.800781 434.484375 C 433.617188 435.457031 432.382812 436.371094 431.105469 437.226562 C 429.832031 438.078125 428.515625 438.867188 427.160156 439.589844 C 425.808594 440.3125 424.421875 440.96875 423.003906 441.558594 C 421.585938 442.144531 420.140625 442.660156 418.671875 443.105469 C 417.203125 443.550781 415.714844 443.925781 414.210938 444.222656 C 412.703125 444.523438 411.1875 444.75 409.660156 444.898438 C 408.132812 445.050781 406.601562 445.125 405.066406 445.125 C 403.53125 445.125 401.996094 445.050781 400.46875 444.898438 C 398.941406 444.75 397.425781 444.523438 395.917969 444.222656 C 394.414062 443.925781 392.925781 443.550781 391.457031 443.105469 C 389.988281 442.660156 388.542969 442.144531 387.125 441.558594 C 385.707031 440.96875 384.320312 440.3125 382.96875 439.589844 C 381.613281 438.867188 380.296875 438.078125 379.023438 437.226562 C 377.746094 436.371094 376.515625 435.457031 375.328125 434.484375 C 374.140625 433.511719 373.003906 432.480469 371.917969 431.394531 C 370.832031 430.308594 369.804688 429.175781 368.828125 427.988281 C 367.855469 426.800781 366.941406 425.570312 366.089844 424.292969 C 365.234375 423.015625 364.449219 421.699219 363.722656 420.347656 C 363 418.992188 362.34375 417.605469 361.757812 416.1875 C 361.167969 414.769531 360.652344 413.328125 360.207031 411.855469 C 359.761719 410.386719 359.390625 408.902344 359.089844 407.394531 C 358.789062 405.890625 358.566406 404.371094 358.414062 402.84375 C 358.265625 401.316406 358.1875 399.785156 358.1875 398.25 C 358.1875 396.714844 358.265625 395.183594 358.414062 393.65625 C 358.566406 392.128906 358.789062 390.609375 359.089844 389.105469 C 359.390625 387.597656 359.761719 386.113281 360.207031 384.644531 C 360.652344 383.171875 361.167969 381.730469 361.757812 380.3125 C 362.34375 378.894531 363 377.507812 363.722656 376.152344 C 364.449219 374.800781 365.234375 373.484375 366.089844 372.207031 C 366.941406 370.929688 367.855469 369.699219 368.828125 368.511719 C 369.804688 367.324219 370.832031 366.191406 371.917969 365.105469 C 373.003906 364.019531 374.140625 362.988281 375.328125 362.015625 C 376.515625 361.039062 377.746094 360.128906 379.023438 359.273438 C 380.296875 358.421875 381.613281 357.632812 382.96875 356.910156 C 384.320312 356.1875 385.707031 355.53125 387.125 354.941406 C 388.542969 354.355469 389.988281 353.839844 391.457031 353.394531 C 392.925781 352.949219 394.414062 352.574219 395.917969 352.273438 C 397.425781 351.976562 398.941406 351.75 400.46875 351.601562 C 401.996094 351.449219 403.53125 351.375 405.066406 351.375 C 406.601562 351.375 408.132812 351.449219 409.660156 351.601562 C 411.1875 351.75 412.703125 351.976562 414.210938 352.273438 C 415.714844 352.574219 417.203125 352.949219 418.671875 353.394531 C 420.140625 353.839844 421.585938 354.355469 423.003906 354.941406 C 424.421875 355.53125 425.808594 356.1875 427.160156 356.910156 C 428.515625 357.632812 429.832031 358.421875 431.105469 359.273438 C 432.382812 360.128906 433.617188 361.039062 434.800781 362.015625 C 435.988281 362.988281 437.125 364.019531 438.210938 365.105469 C 439.296875 366.191406 440.324219 367.324219 441.300781 368.511719 C 442.273438 369.699219 443.1875 370.929688 444.039062 372.207031 C 444.894531 373.484375 445.679688 374.800781 446.40625 376.152344 C 447.128906 377.507812 447.785156 378.894531 448.371094 380.3125 C 448.960938 381.730469 449.476562 383.171875 449.921875 384.644531 C 450.367188 386.113281 450.738281 387.597656 451.039062 389.105469 C 451.339844 390.609375 451.5625 392.128906 451.714844 393.65625 C 451.863281 395.183594 451.941406 396.714844 451.941406 398.25 Z M 451.941406 398.25"/></g><path fill="#FFF" d="M 416.832031 400.660156 L 418.15625 390.386719 L 407.980469 390.386719 L 407.980469 383.824219 C 407.980469 380.847656 408.808594 378.820312 413.074219 378.820312 L 418.511719 378.816406 L 418.511719 369.628906 C 417.574219 369.5 414.347656 369.222656 410.585938 369.222656 C 402.738281 369.222656 397.371094 374.011719 397.371094 382.808594 L 397.371094 390.386719 L 388.496094 390.386719 L 388.496094 400.660156 L 397.371094 400.660156 L 397.371094 427.027344 L 407.980469 427.027344 L 407.980469 400.660156 Z M 416.832031 400.660156"/></svg>