<svg xmlns="http://www.w3.org/2000/svg" version="1.0" viewBox="210.7 183.55 30.71 31.57"><path d="M 241.417969 199.328125 C 241.417969 200.367188 241.320312 201.390625 241.125 202.410156 C 240.925781 203.425781 240.636719 204.410156 240.25 205.367188 C 239.863281 206.328125 239.390625 207.234375 238.832031 208.097656 C 238.269531 208.960938 237.632812 209.757812 236.921875 210.488281 C 236.207031 211.222656 235.433594 211.875 234.59375 212.453125 C 233.753906 213.027344 232.871094 213.515625 231.9375 213.910156 C 231.007812 214.308594 230.046875 214.605469 229.058594 214.808594 C 228.066406 215.011719 227.070312 215.113281 226.0625 215.113281 C 225.054688 215.113281 224.054688 215.011719 223.066406 214.808594 C 222.078125 214.605469 221.117188 214.308594 220.183594 213.910156 C 219.253906 213.515625 218.367188 213.027344 217.53125 212.453125 C 216.691406 211.875 215.914062 211.222656 215.203125 210.488281 C 214.488281 209.757812 213.851562 208.960938 213.292969 208.097656 C 212.730469 207.234375 212.257812 206.328125 211.875 205.367188 C 211.488281 204.410156 211.195312 203.425781 211 202.410156 C 210.800781 201.390625 210.703125 200.367188 210.703125 199.328125 C 210.703125 198.292969 210.800781 197.265625 211 196.25 C 211.195312 195.234375 211.488281 194.246094 211.875 193.289062 C 212.257812 192.332031 212.730469 191.421875 213.292969 190.5625 C 213.851562 189.699219 214.488281 188.902344 215.203125 188.167969 C 215.914062 187.4375 216.691406 186.78125 217.53125 186.207031 C 218.367188 185.632812 219.253906 185.144531 220.183594 184.75 C 221.117188 184.351562 222.078125 184.050781 223.066406 183.851562 C 224.054688 183.648438 225.054688 183.546875 226.0625 183.546875 C 227.070312 183.546875 228.066406 183.648438 229.058594 183.851562 C 230.046875 184.050781 231.007812 184.351562 231.9375 184.75 C 232.871094 185.144531 233.753906 185.632812 234.59375 186.207031 C 235.433594 186.78125 236.207031 187.4375 236.921875 188.167969 C 237.632812 188.902344 238.269531 189.699219 238.832031 190.5625 C 239.390625 191.421875 239.863281 192.332031 240.25 193.289062 C 240.636719 194.246094 240.925781 195.234375 241.125 196.25 C 241.320312 197.265625 241.417969 198.292969 241.417969 199.328125 Z M 241.417969 199.328125"/><path fill="#FFF" d="M 234.730469 195.753906 C 234.71875 195.042969 234.585938 194.359375 234.339844 193.695312 C 234.121094 193.125 233.792969 192.625 233.363281 192.191406 C 232.933594 191.757812 232.433594 191.433594 231.867188 191.210938 C 231.207031 190.964844 230.523438 190.832031 229.816406 190.816406 C 228.914062 190.773438 228.625 190.765625 226.332031 190.765625 C 224.039062 190.765625 223.753906 190.773438 222.847656 190.8125 C 222.144531 190.828125 221.460938 190.960938 220.800781 191.207031 C 220.226562 191.425781 219.726562 191.75 219.300781 192.191406 C 218.867188 192.621094 218.542969 193.121094 218.328125 193.691406 C 218.082031 194.355469 217.949219 195.042969 217.9375 195.75 C 217.894531 196.65625 217.882812 196.945312 217.882812 199.25 C 217.882812 201.554688 217.894531 201.839844 217.933594 202.746094 C 217.949219 203.453125 218.078125 204.140625 218.328125 204.804688 C 218.546875 205.371094 218.871094 205.875 219.300781 206.304688 C 219.734375 206.738281 220.230469 207.066406 220.800781 207.285156 C 221.460938 207.535156 222.144531 207.667969 222.847656 207.679688 C 223.75 207.71875 224.035156 207.730469 226.328125 207.730469 C 228.625 207.730469 228.910156 207.71875 229.8125 207.679688 C 230.515625 207.667969 231.199219 207.535156 231.859375 207.285156 C 232.429688 207.066406 232.925781 206.738281 233.359375 206.308594 C 233.789062 205.875 234.113281 205.375 234.332031 204.804688 C 234.582031 204.140625 234.710938 203.453125 234.726562 202.746094 C 234.765625 201.839844 234.773438 201.550781 234.773438 199.25 C 234.773438 196.945312 234.769531 196.65625 234.730469 195.753906 Z M 233.210938 202.679688 C 233.203125 203.222656 233.109375 203.746094 232.921875 204.25 C 232.621094 205.027344 232.085938 205.5625 231.316406 205.863281 C 230.808594 206.050781 230.289062 206.148438 229.75 206.152344 C 228.859375 206.195312 228.589844 206.203125 226.335938 206.203125 C 224.082031 206.203125 223.8125 206.191406 222.921875 206.152344 C 222.382812 206.148438 221.863281 206.054688 221.355469 205.867188 C 220.984375 205.726562 220.660156 205.515625 220.386719 205.230469 C 220.101562 204.953125 219.894531 204.628906 219.753906 204.257812 C 219.566406 203.75 219.472656 203.226562 219.464844 202.683594 C 219.425781 201.789062 219.417969 201.519531 219.417969 199.253906 C 219.417969 196.992188 219.425781 196.71875 219.464844 195.828125 C 219.46875 195.289062 219.566406 194.761719 219.753906 194.253906 C 219.890625 193.882812 220.101562 193.554688 220.386719 193.28125 C 220.664062 192.996094 220.988281 192.785156 221.359375 192.648438 C 221.863281 192.460938 222.386719 192.363281 222.925781 192.355469 C 223.816406 192.316406 224.085938 192.304688 226.339844 192.304688 C 228.59375 192.304688 228.863281 192.316406 229.75 192.355469 C 230.289062 192.363281 230.8125 192.457031 231.320312 192.648438 C 231.691406 192.785156 232.015625 192.996094 232.289062 193.28125 C 232.574219 193.558594 232.78125 193.882812 232.921875 194.253906 C 233.109375 194.761719 233.207031 195.289062 233.210938 195.828125 C 233.25 196.722656 233.261719 196.992188 233.261719 199.257812 C 233.261719 201.519531 233.25 201.785156 233.210938 202.679688 Z M 233.210938 202.679688"/><path fill="#FFF" d="M 226.332031 194.890625 C 226.046875 194.890625 225.765625 194.917969 225.484375 194.976562 C 225.207031 195.03125 224.933594 195.113281 224.671875 195.222656 C 224.410156 195.332031 224.160156 195.464844 223.921875 195.625 C 223.683594 195.785156 223.464844 195.964844 223.265625 196.167969 C 223.0625 196.371094 222.882812 196.589844 222.722656 196.828125 C 222.566406 197.066406 222.433594 197.316406 222.324219 197.582031 C 222.214844 197.847656 222.132812 198.117188 222.074219 198.398438 C 222.019531 198.679688 221.992188 198.964844 221.992188 199.25 C 221.992188 199.535156 222.019531 199.820312 222.074219 200.101562 C 222.132812 200.382812 222.214844 200.652344 222.324219 200.917969 C 222.433594 201.183594 222.566406 201.433594 222.722656 201.671875 C 222.882812 201.910156 223.0625 202.128906 223.265625 202.332031 C 223.464844 202.535156 223.683594 202.714844 223.921875 202.875 C 224.160156 203.03125 224.410156 203.167969 224.671875 203.277344 C 224.933594 203.386719 225.207031 203.46875 225.484375 203.523438 C 225.765625 203.582031 226.046875 203.609375 226.332031 203.609375 C 226.617188 203.609375 226.898438 203.582031 227.179688 203.523438 C 227.457031 203.46875 227.730469 203.386719 227.992188 203.277344 C 228.257812 203.167969 228.507812 203.03125 228.742188 202.875 C 228.980469 202.714844 229.199219 202.535156 229.402344 202.332031 C 229.601562 202.128906 229.78125 201.910156 229.941406 201.671875 C 230.097656 201.433594 230.234375 201.183594 230.34375 200.917969 C 230.453125 200.652344 230.535156 200.382812 230.589844 200.101562 C 230.644531 199.820312 230.671875 199.535156 230.671875 199.25 C 230.671875 198.964844 230.644531 198.679688 230.589844 198.398438 C 230.535156 198.117188 230.449219 197.847656 230.34375 197.582031 C 230.234375 197.316406 230.097656 197.066406 229.941406 196.828125 C 229.78125 196.589844 229.601562 196.371094 229.402344 196.167969 C 229.199219 195.964844 228.980469 195.785156 228.742188 195.625 C 228.507812 195.464844 228.257812 195.332031 227.992188 195.222656 C 227.730469 195.113281 227.457031 195.03125 227.179688 194.976562 C 226.898438 194.917969 226.617188 194.890625 226.332031 194.890625 Z M 226.332031 202.078125 C 225.960938 202.078125 225.601562 202.003906 225.253906 201.863281 C 224.910156 201.71875 224.605469 201.515625 224.34375 201.25 C 224.078125 200.984375 223.875 200.679688 223.730469 200.332031 C 223.589844 199.984375 223.519531 199.625 223.519531 199.25 C 223.519531 198.875 223.589844 198.515625 223.730469 198.167969 C 223.875 197.820312 224.078125 197.515625 224.34375 197.25 C 224.605469 196.984375 224.910156 196.78125 225.253906 196.636719 C 225.601562 196.496094 225.960938 196.421875 226.332031 196.421875 C 226.707031 196.421875 227.066406 196.496094 227.410156 196.636719 C 227.753906 196.78125 228.058594 196.984375 228.324219 197.25 C 228.585938 197.515625 228.789062 197.820312 228.933594 198.167969 C 229.078125 198.515625 229.148438 198.875 229.148438 199.25 C 229.148438 199.625 229.074219 199.984375 228.933594 200.332031 C 228.789062 200.679688 228.585938 200.984375 228.324219 201.25 C 228.058594 201.515625 227.753906 201.71875 227.410156 201.863281 C 227.066406 202.003906 226.707031 202.078125 226.332031 202.078125 Z M 226.332031 202.078125"/><path fill="#FFF" d="M 231.855469 194.71875 C 231.855469 194.855469 231.832031 194.984375 231.78125 195.109375 C 231.726562 195.234375 231.65625 195.34375 231.558594 195.4375 C 231.464844 195.535156 231.355469 195.605469 231.230469 195.660156 C 231.109375 195.710938 230.976562 195.734375 230.84375 195.734375 C 230.710938 195.734375 230.582031 195.710938 230.457031 195.660156 C 230.332031 195.605469 230.222656 195.535156 230.128906 195.4375 C 230.03125 195.34375 229.960938 195.234375 229.910156 195.109375 C 229.855469 194.984375 229.832031 194.855469 229.832031 194.71875 C 229.832031 194.585938 229.855469 194.453125 229.90625 194.332031 C 229.960938 194.207031 230.03125 194.09375 230.128906 194 C 230.222656 193.90625 230.332031 193.832031 230.457031 193.78125 C 230.578125 193.726562 230.710938 193.703125 230.84375 193.703125 C 230.976562 193.703125 231.105469 193.726562 231.230469 193.777344 C 231.355469 193.832031 231.464844 193.902344 231.558594 194 C 231.65625 194.09375 231.726562 194.203125 231.78125 194.328125 C 231.832031 194.453125 231.855469 194.585938 231.855469 194.71875 Z M 231.855469 194.71875"/></svg>