<svg xmlns="http://www.w3.org/2000/svg" xmlns:xlink="http://www.w3.org/1999/xlink" width="84" height="94" viewBox="0 0 84 94">
  <defs>
    <clipPath id="clip-Artboard_2">
      <rect width="84" height="94"/>
    </clipPath>
  </defs>
  <g id="Artboard_2" data-name="Artboard – 2" clip-path="url(#clip-Artboard_2)">
    <ellipse id="Ellipse_82" data-name="Ellipse 82" cx="21.5" cy="22" rx="21.5" ry="22" transform="translate(23 29.97)"/>
    <path id="Path_1648" data-name="Path 1648" d="M24.036,6.954a8.642,8.642,0,0,0-.55-2.869A6.059,6.059,0,0,0,20.025.624a8.664,8.664,0,0,0-2.869-.55C15.89.014,15.488,0,12.277,0S8.664.014,7.4.069a8.645,8.645,0,0,0-2.869.55,5.771,5.771,0,0,0-2.1,1.368A5.823,5.823,0,0,0,1.073,4.08a8.665,8.665,0,0,0-.55,2.869C.463,8.215.449,8.617.449,11.828S.463,15.441.519,16.7a8.642,8.642,0,0,0,.55,2.869,6.058,6.058,0,0,0,3.461,3.461,8.666,8.666,0,0,0,2.869.55c1.261.056,1.663.069,4.874.069s3.613-.014,4.874-.069a8.64,8.64,0,0,0,2.869-.55,6.05,6.05,0,0,0,3.461-3.461,8.671,8.671,0,0,0,.55-2.869c.055-1.261.069-1.663.069-4.874S24.091,8.215,24.036,6.954Zm-2.13,9.656A6.483,6.483,0,0,1,21.5,18.8a3.923,3.923,0,0,1-2.246,2.246,6.506,6.506,0,0,1-2.195.406c-1.247.056-1.622.069-4.777.069s-3.535-.014-4.778-.069A6.479,6.479,0,0,1,5.31,21.05a3.639,3.639,0,0,1-1.358-.883,3.677,3.677,0,0,1-.883-1.358,6.507,6.507,0,0,1-.406-2.195c-.056-1.247-.069-1.622-.069-4.778S2.607,8.3,2.662,7.06a6.479,6.479,0,0,1,.406-2.195,3.6,3.6,0,0,1,.887-1.358,3.671,3.671,0,0,1,1.358-.882,6.51,6.51,0,0,1,2.195-.407c1.247-.055,1.622-.069,4.777-.069s3.535.014,4.778.069a6.483,6.483,0,0,1,2.195.407,3.637,3.637,0,0,1,1.358.882A3.676,3.676,0,0,1,21.5,4.865a6.509,6.509,0,0,1,.407,2.195c.055,1.247.069,1.622.069,4.777S21.961,15.363,21.906,16.61Zm0,0" transform="translate(32.603 40.031)" fill="#fff"/>
    <path id="Path_1649" data-name="Path 1649" d="M131.025,124.5a6.076,6.076,0,1,0,6.076,6.076A6.077,6.077,0,0,0,131.025,124.5Zm0,10.017a3.941,3.941,0,1,1,3.941-3.941A3.942,3.942,0,0,1,131.025,134.517Zm0,0" transform="translate(-86.145 -78.717)" fill="#fff"/>
    <path id="Path_1650" data-name="Path 1650" d="M365.286,90.02a1.418,1.418,0,1,1-1.419-1.418A1.419,1.419,0,0,1,365.286,90.02Zm0,0" transform="translate(-312.672 -44.477)" fill="#fff"/>
  </g>
</svg>
