<svg xmlns="http://www.w3.org/2000/svg" version="1.0" viewBox="211.42 428.16 93.75 93.75"><defs><clipPath id="a"><path d="M 211.417969 428.164062 L 305.167969 428.164062 L 305.167969 521.914062 L 211.417969 521.914062 Z M 211.417969 428.164062"/></clipPath><clipPath id="b"><path d="M 224.710938 441.453125 L 291.460938 441.453125 L 291.460938 508.203125 L 224.710938 508.203125 Z M 224.710938 441.453125"/></clipPath></defs><g clip-path="url(#a)"><path d="M 305.167969 475.039062 C 305.167969 476.574219 305.09375 478.105469 304.945312 479.632812 C 304.792969 481.160156 304.566406 482.675781 304.269531 484.183594 C 303.96875 485.6875 303.597656 487.175781 303.152344 488.644531 C 302.707031 490.113281 302.1875 491.558594 301.601562 492.976562 C 301.015625 494.394531 300.359375 495.78125 299.632812 497.132812 C 298.910156 498.488281 298.121094 499.804688 297.269531 501.078125 C 296.417969 502.355469 295.503906 503.589844 294.53125 504.773438 C 293.554688 505.960938 292.527344 507.097656 291.441406 508.183594 C 290.355469 509.269531 289.21875 510.296875 288.03125 511.273438 C 286.84375 512.246094 285.613281 513.160156 284.335938 514.011719 C 283.058594 514.867188 281.746094 515.652344 280.390625 516.378906 C 279.039062 517.101562 277.652344 517.757812 276.234375 518.34375 C 274.8125 518.933594 273.371094 519.449219 271.902344 519.894531 C 270.433594 520.339844 268.945312 520.710938 267.4375 521.011719 C 265.933594 521.3125 264.417969 521.535156 262.890625 521.6875 C 261.359375 521.835938 259.828125 521.914062 258.292969 521.914062 C 256.757812 521.914062 255.226562 521.835938 253.699219 521.6875 C 252.171875 521.535156 250.65625 521.3125 249.148438 521.011719 C 247.644531 520.710938 246.15625 520.339844 244.6875 519.894531 C 243.21875 519.449219 241.773438 518.933594 240.355469 518.34375 C 238.9375 517.757812 237.550781 517.101562 236.199219 516.378906 C 234.84375 515.652344 233.527344 514.867188 232.253906 514.011719 C 230.976562 513.160156 229.742188 512.246094 228.558594 511.273438 C 227.371094 510.296875 226.234375 509.269531 225.148438 508.183594 C 224.0625 507.097656 223.035156 505.960938 222.058594 504.773438 C 221.085938 503.589844 220.171875 502.355469 219.320312 501.078125 C 218.464844 499.804688 217.679688 498.488281 216.953125 497.132812 C 216.230469 495.78125 215.574219 494.394531 214.988281 492.976562 C 214.398438 491.558594 213.882812 490.113281 213.4375 488.644531 C 212.992188 487.175781 212.621094 485.6875 212.320312 484.183594 C 212.019531 482.675781 211.796875 481.160156 211.644531 479.632812 C 211.496094 478.105469 211.417969 476.574219 211.417969 475.039062 C 211.417969 473.503906 211.496094 471.972656 211.644531 470.441406 C 211.796875 468.914062 212.019531 467.398438 212.320312 465.894531 C 212.621094 464.386719 212.992188 462.898438 213.4375 461.429688 C 213.882812 459.960938 214.398438 458.519531 214.988281 457.097656 C 215.574219 455.679688 216.230469 454.292969 216.953125 452.941406 C 217.679688 451.585938 218.464844 450.273438 219.320312 448.996094 C 220.171875 447.71875 221.085938 446.488281 222.058594 445.300781 C 223.035156 444.113281 224.0625 442.976562 225.148438 441.890625 C 226.234375 440.804688 227.371094 439.777344 228.558594 438.804688 C 229.742188 437.828125 230.976562 436.914062 232.253906 436.0625 C 233.527344 435.210938 234.84375 434.421875 236.199219 433.699219 C 237.550781 432.972656 238.9375 432.316406 240.355469 431.730469 C 241.773438 431.144531 243.21875 430.625 244.6875 430.179688 C 246.15625 429.734375 247.644531 429.363281 249.148438 429.0625 C 250.65625 428.765625 252.171875 428.539062 253.699219 428.386719 C 255.226562 428.238281 256.757812 428.164062 258.292969 428.164062 C 259.828125 428.164062 261.359375 428.238281 262.890625 428.386719 C 264.417969 428.539062 265.933594 428.765625 267.4375 429.0625 C 268.945312 429.363281 270.433594 429.734375 271.902344 430.179688 C 273.371094 430.625 274.8125 431.144531 276.234375 431.730469 C 277.652344 432.316406 279.039062 432.972656 280.390625 433.699219 C 281.746094 434.421875 283.058594 435.210938 284.335938 436.0625 C 285.613281 436.914062 286.84375 437.828125 288.03125 438.804688 C 289.21875 439.777344 290.355469 440.804688 291.441406 441.890625 C 292.527344 442.976562 293.554688 444.113281 294.53125 445.300781 C 295.503906 446.488281 296.417969 447.71875 297.269531 448.996094 C 298.121094 450.273438 298.910156 451.585938 299.632812 452.941406 C 300.359375 454.292969 301.015625 455.679688 301.601562 457.097656 C 302.1875 458.519531 302.707031 459.960938 303.152344 461.429688 C 303.597656 462.898438 303.96875 464.386719 304.269531 465.894531 C 304.566406 467.398438 304.792969 468.914062 304.945312 470.441406 C 305.09375 471.972656 305.167969 473.503906 305.167969 475.039062 Z M 305.167969 475.039062"/></g><g clip-path="url(#b)"><path fill="#FFF" d="M 244.085938 441.453125 C 233.414062 441.453125 224.710938 450.15625 224.710938 460.828125 L 224.710938 488.847656 C 224.710938 499.496094 233.414062 508.203125 244.085938 508.203125 L 272.105469 508.203125 C 282.753906 508.203125 291.460938 499.496094 291.460938 488.828125 L 291.460938 460.828125 C 291.460938 450.15625 282.753906 441.453125 272.085938 441.453125 Z M 244.085938 446.585938 L 272.085938 446.585938 C 279.988281 446.585938 286.324219 452.925781 286.324219 460.828125 L 286.324219 488.828125 C 286.324219 496.730469 279.988281 503.066406 272.105469 503.066406 L 244.085938 503.066406 C 236.183594 503.066406 229.84375 496.730469 229.84375 488.847656 L 229.84375 460.828125 C 229.84375 452.925781 236.183594 446.585938 244.085938 446.585938 Z M 278.621094 451.722656 C 277.199219 451.722656 276.054688 452.863281 276.054688 454.289062 C 276.054688 455.714844 277.199219 456.855469 278.621094 456.855469 C 280.046875 456.855469 281.191406 455.714844 281.191406 454.289062 C 281.191406 452.863281 280.046875 451.722656 278.621094 451.722656 Z M 258.085938 456.855469 C 248.195312 456.855469 240.113281 464.941406 240.113281 474.828125 C 240.113281 484.714844 248.195312 492.800781 258.085938 492.800781 C 267.972656 492.800781 276.054688 484.714844 276.054688 474.828125 C 276.054688 464.941406 267.972656 456.855469 258.085938 456.855469 Z M 258.085938 461.992188 C 265.203125 461.992188 270.921875 467.707031 270.921875 474.828125 C 270.921875 481.949219 265.203125 487.664062 258.085938 487.664062 C 250.964844 487.664062 245.246094 481.949219 245.246094 474.828125 C 245.246094 467.707031 250.964844 461.992188 258.085938 461.992188 Z M 258.085938 461.992188"/></g></svg>