<svg xmlns="http://www.w3.org/2000/svg" id="Layer_1" data-name="Layer 1" viewBox="38.62 51.71 167.3 56.01"><defs><style>.cls-1{fill:#fff;}.cls-2{fill:#7abae1;}</style></defs><g id="title"><path id="path302703" class="cls-1" d="M38.62,81.22a17,17,0,0,0,1.22,6.19,16,16,0,0,0,8.48,8.42,15.52,15.52,0,0,0,12.39,0,14.32,14.32,0,0,0,1.34-.61v12.5l8.37-2.79V81.22A15.62,15.62,0,0,0,69.19,75,16.44,16.44,0,0,0,65.78,70a15.84,15.84,0,0,0-11.26-4.63,15.74,15.74,0,0,0-6.2,1.23A16.2,16.2,0,0,0,43.25,70a15.77,15.77,0,0,0-4.63,11.27Zm8.36,0a7.54,7.54,0,1,1,7.54,7.53A7.54,7.54,0,0,1,47,81.22Z"/><path id="path302705" class="cls-1" d="M87.84,97.06a13.91,13.91,0,0,0,14-14V65.6H93.42V83.11a5.58,5.58,0,1,1-11.16,0V65.6H73.89V83.11a13.9,13.9,0,0,0,14,14Z"/><path id="path302707" class="cls-1" d="M106.33,96.67h8.43V64.48l-8.43,2.79Z"/><path id="path302709" class="cls-1" d="M133.84,97.12A16,16,0,0,0,147,90.2L140,85.46a7.51,7.51,0,1,1-.05-8.59l6.86-4.8a16.12,16.12,0,0,0-5.58-4.91,15.68,15.68,0,0,0-7.42-1.84,15.48,15.48,0,0,0-6.19,1.23,16.41,16.41,0,0,0-5.08,3.4,16.24,16.24,0,0,0-3.4,5.08,16.19,16.19,0,0,0,0,12.38,16.24,16.24,0,0,0,3.4,5.08,15.88,15.88,0,0,0,11.27,4.63Z"/><path id="path302711" class="cls-1" d="M178.39,65.6H167.68L157.13,77.42V51.71h-8.42v45h8.42V88.75Z"/><path id="path302713" class="cls-1" d="M186.28,96.67h7L205.92,65.6h-9.09l-7,18.07-7-18.07h-9.15Z"/></g><polygon class="cls-2" points="171.6 87.06 161.75 87.06 168.8 96.67 178.69 96.67 171.6 87.06"/></svg>