<svg xmlns="http://www.w3.org/2000/svg" version="1.0" viewBox="211.39 259.39 93.78 93.78"><defs><clipPath id="a"><path d="M 211.417969 259.414062 L 305.167969 259.414062 L 305.167969 353.164062 L 211.417969 353.164062 Z M 211.417969 259.414062"/></clipPath></defs><g clip-path="url(#a)"><path d="M 258.253906 259.386719 C 232.371094 259.386719 211.390625 280.367188 211.390625 306.246094 C 211.390625 332.128906 232.371094 353.109375 258.253906 353.109375 C 284.136719 353.109375 305.117188 332.128906 305.117188 306.246094 C 305.117188 280.367188 284.136719 259.386719 258.253906 259.386719 Z M 235.203125 289.214844 L 281.304688 289.214844 C 281.578125 289.214844 281.839844 289.242188 282.097656 289.285156 L 258.253906 304.152344 L 234.410156 289.285156 C 234.667969 289.246094 234.929688 289.214844 235.203125 289.214844 Z M 286.328125 320.75 C 286.328125 323.523438 284.078125 325.773438 281.304688 325.773438 L 235.199219 325.773438 C 232.425781 325.773438 230.179688 323.523438 230.179688 320.75 L 230.179688 294.238281 C 230.179688 293.945312 230.210938 293.660156 230.257812 293.378906 L 256.753906 309.902344 C 256.785156 309.921875 256.820312 309.933594 256.855469 309.953125 C 256.886719 309.972656 256.925781 309.992188 256.960938 310.007812 C 257.148438 310.105469 257.339844 310.183594 257.535156 310.234375 C 257.558594 310.238281 257.578125 310.242188 257.597656 310.246094 C 257.8125 310.296875 258.03125 310.332031 258.25 310.332031 C 258.253906 310.332031 258.253906 310.332031 258.253906 310.332031 C 258.253906 310.332031 258.253906 310.332031 258.257812 310.332031 C 258.476562 310.332031 258.695312 310.296875 258.910156 310.246094 C 258.929688 310.242188 258.949219 310.238281 258.972656 310.234375 C 259.167969 310.183594 259.363281 310.105469 259.546875 310.007812 C 259.582031 309.992188 259.621094 309.972656 259.65625 309.953125 C 259.6875 309.933594 259.722656 309.921875 259.753906 309.902344 L 286.246094 293.378906 C 286.296875 293.660156 286.328125 293.945312 286.328125 294.238281 Z M 286.328125 320.75"/></g></svg>