<?xml version="1.0" standalone="no"?>
<!DOCTYPE svg PUBLIC "-//W3C//DTD SVG 20010904//EN"
 "http://www.w3.org/TR/2001/REC-SVG-20010904/DTD/svg10.dtd">
<svg version="1.0" xmlns="http://www.w3.org/2000/svg"
 width="705.000000pt" height="702.000000pt" viewBox="0 0 705.000000 702.000000"
 preserveAspectRatio="xMidYMid meet">
<metadata>
Created by potrace 1.16, written by Peter Selinger 2001-2019
</metadata>
<g transform="translate(0.000000,702.000000) scale(0.100000,-0.100000)"
fill="#000000" stroke="none">
<path d="M3205 6870 c-621 -55 -1169 -254 -1673 -607 -349 -245 -674 -588
-904 -954 -271 -432 -438 -915 -494 -1429 -23 -212 -15 -645 14 -835 92 -587
299 -1084 641 -1539 575 -765 1430 -1239 2394 -1327 166 -15 572 -6 732 16
762 105 1423 438 1961 986 774 791 1103 1901 888 3000 -102 523 -336 1024
-680 1454 -113 141 -358 386 -499 499 -500 400 -1082 645 -1714 722 -152 18
-527 26 -666 14z m1567 -1952 c102 -28 168 -69 254 -153 80 -80 113 -131 157
-243 l22 -57 0 -945 0 -945 -33 -81 c-63 -157 -191 -284 -350 -351 l-67 -28
-1287 -3 c-708 -1 -1326 1 -1375 6 -131 13 -223 60 -328 166 -94 94 -146 188
-170 304 -23 111 -22 1762 0 1871 31 144 114 275 230 361 92 68 154 92 295
114 14 2 603 3 1310 2 1141 -2 1291 -4 1342 -18z"/>
<path d="M2130 4740 c-72 -10 -124 -30 -182 -69 -63 -42 -100 -88 -140 -168
l-33 -68 0 -910 0 -910 38 -76 c67 -134 170 -211 308 -229 99 -13 2449 -13
2549 0 171 23 303 145 345 321 22 96 22 1682 0 1778 -34 142 -126 254 -254
308 l-66 28 -1255 1 c-690 1 -1280 -2 -1310 -6z m630 -890 c344 -346 630 -630
636 -630 10 0 162 151 936 933 357 359 347 352 419 304 30 -20 34 -28 37 -72
l2 -50 -342 -347 c-189 -191 -376 -381 -417 -422 l-74 -75 309 -303 c525 -515
524 -514 524 -558 0 -27 -7 -44 -27 -64 -57 -58 -105 -47 -193 42 -192 197
-743 732 -753 732 -7 0 -84 -74 -172 -165 -174 -180 -205 -205 -250 -205 -43
0 -64 17 -244 203 -90 92 -167 167 -171 167 -7 0 -137 -126 -601 -585 -130
-129 -227 -217 -243 -221 -65 -16 -126 30 -126 96 0 44 -17 27 668 698 l162
159 -256 259 c-549 555 -584 593 -584 624 0 66 40 108 105 110 27 0 99 -69
655 -630z"/>
</g>
</svg>
