<svg xmlns="http://www.w3.org/2000/svg" xmlns:xlink="http://www.w3.org/1999/xlink" viewBox="0 0 1038 469">
  <defs>
    <clipPath id="clip-Artboard_1">
      <rect width="1038" height="469"/>
    </clipPath>
  </defs>
  <g id="Artboard_1" data-name="Artboard – 1" clip-path="url(#clip-Artboard_1)">
    <g id="Group_22" data-name="Group 22" transform="translate(-495 432.213)">
      <path id="Path_1" data-name="Path 1" d="M305.061,510.12a72.2,72.2,0,1,0,33.346,136.255v59.246l38.855-14.356V582.321A72.208,72.208,0,0,0,305.061,510.12Zm0,105.874a33.667,33.667,0,1,1,33.661-33.673A33.678,33.678,0,0,1,305.061,615.994Z" transform="translate(405.14 -774.067)"/>
      <path id="Path_2" data-name="Path 2" d="M608.931,615.994a33.667,33.667,0,1,1,28.934-50.865l30.486-23.81a72.194,72.194,0,1,0-.315,82.472l-31.467-22.27A33.549,33.549,0,0,1,608.931,615.994Z" transform="translate(455.938 -774.067)"/>
      <path id="Path_3" data-name="Path 3" d="M368,510.384H407.45v85.964s0,20.349,24.087,20.349,24.917-22.009,24.917-22.009V509.969h39.036v83.247a64.425,64.425,0,0,1-9.063,33.423c-8.505,14.035-24.791,28.679-55.721,28.679-48.781,0-59.453-37.548-61.709-50.959a44.81,44.81,0,0,1-.6-7.209C368.334,582.527,368,509.263,368,510.384Z" transform="translate(427.731 -774.092)"/>
      <path id="Path_4" data-name="Path 4" d="M493.3,519.522l39.036-12.043v146.6H492.885S493.715,519.522,493.3,519.522Z" transform="translate(448.608 -774.508)"/>
      <path id="Path_5" data-name="Path 5" d="M824.983,662.105H857.79l56.479-141.2-42.359.831-30.731,78.9-31.146-80.565h-70.6L695,575.311V456.955l-39.867.415V662.52H696.66V625.975l78.489-87.625,49.834,123.755Z" transform="translate(475.731 -782.955)"/>
      <path id="Path_6" data-name="Path 6" d="M704.944,594.3h46.512L782.6,637.069l-44.851,2.076Z" transform="translate(484.058 -759.995)" fill="#7dbbe9"/>
    </g>
  </g>
</svg>